<?xml version="1.0" encoding="iso-8859-1"?>
<!-- Generator: Adobe Illustrator 25.0.0, SVG Export Plug-In . SVG Version: 6.00 Build 0)  -->
<svg version="1.1" id="Layer_1" xmlns="http://www.w3.org/2000/svg" xmlns:xlink="http://www.w3.org/1999/xlink" x="0px" y="0px"
	 viewBox="0 0 1000 1000" style="enable-background:new 0 0 1000 1000;" xml:space="preserve">
<g>
	<g>
		<path style="fill:#048972;" d="M75.464,549.708c24.637,0,48.04-0.004,71.444,0.001c17.668,0.004,35.34,0.27,53.001-0.076
			c8.36-0.164,12.126,2.57,13.673,11.42c22.079,126.337,132.719,227.818,260.445,238.326
			c120.814,9.939,217.481-34.278,289.219-132.041c13.411-18.275,29.263-28.016,52.851-26.651c26.145,1.513,52.448,0.18,78.681,0.31
			c26.059,0.129,30.607,7.269,19.283,31.396C866.986,772.694,794.48,848.971,692.62,892.853
			c-169.266,72.922-328.783,53.629-472.157-63.988C138.639,761.741,92.589,672.355,76.758,567.646
			C75.974,562.463,75.979,557.16,75.464,549.708z"/>
		<path style="fill:#048972;" d="M76.889,452.875c4.536-59.227,22.335-111.861,50.825-160.037
			c90.539-153.099,226.188-229.896,403.65-228.553c166.021,1.257,327.717,115.011,389.871,269.767
			c6.894,17.166,3.518,22.483-15.204,22.635c-29.447,0.24-58.951-1.023-88.328,0.424c-22.577,1.113-37.207-8.143-49.202-26.297
			c-41.945-63.479-100.483-104.316-173.817-123.721C425.81,162.408,253.16,267.206,215.21,437.633
			c-2.608,11.713-6.794,15.742-18.857,15.515C157.373,452.416,118.37,452.875,76.889,452.875z"/>
	</g>
	<path style="fill:#00B2BB;" d="M751.644,595.358c6.079-95.329-51.181-181.364-141.51-212.297
		c-71.948-24.667-144.436-6.701-189.995,47.073c-40.476,47.758-48.401,115.017-19.46,165.369
		c27.012,47.032,86.45,70.454,134.664,52.716c6.39-2.344,12.78-5.498,18.298-9.502c-39.771,21.576-107.839-19.439-122.258-73.131
		c-11.805-43.878,16.161-99.209,60.496-117.486c48.069-19.792,109.499-3.05,142.921,39.293
		c40.891,51.783,38.152,106.989,9.792,162.443c-36.057,70.558-112.092,104.063-192.899,87.114
		c-102.673-21.555-174.103-98.4-183.625-203.293c-8.029-88.421,34.065-199.102,122.548-244.142
		c107.196-54.583,246.238-38.567,335.53,63.629c9.86,11.286,18.754,23.078,26.675,35.384
		c22.804,35.429,34.336,77.208,30.908,119.202C781.092,540.038,770.601,567.195,751.644,595.358z"/>
</g>
<g>
</g>
<g>
</g>
<g>
</g>
<g>
</g>
<g>
</g>
<g>
</g>
</svg>
